<svg width="53" height="52" viewBox="0 0 53 52" fill="none" xmlns="http://www.w3.org/2000/svg">
<rect x="0.5" width="52" height="52" rx="26" fill="black"/>
<path d="M38.9892 18.3822H34.9587C34.4872 18.3822 34.0435 18.1788 33.7291 17.8275L32.0929 15.9786C31.6214 15.4517 30.8079 15.4054 30.2717 15.8769C30.2347 15.9046 30.1978 15.9416 30.17 15.9786L28.7741 17.5594C28.3211 18.0771 27.6555 18.3822 26.9715 18.3822H4.92346C4.28559 20.2033 3.88808 22.0984 3.72168 24.0213H24.5309C24.8915 24.0213 25.2427 23.8734 25.4923 23.6053L27.4337 21.5807C27.674 21.3311 28.0068 21.1925 28.3581 21.1925H28.4321C28.8019 21.1925 29.1531 21.3496 29.3935 21.6177L31.0298 23.4666C31.3348 23.8179 31.7878 24.0213 32.2593 24.0213H49.2413C49.0842 22.0984 48.6867 20.2033 48.0395 18.3822H39.0077H38.9892ZM16.3126 35.8819C16.6731 35.8819 17.0244 35.734 17.274 35.4659L19.2061 33.4414C19.4465 33.1918 19.7793 33.0531 20.1306 33.0531H20.2138C20.5835 33.0531 20.9348 33.2102 21.1752 33.4783L22.8022 35.3272C23.1165 35.6785 23.5603 35.8819 24.0317 35.8819H47.0504C47.9286 34.0792 48.5572 32.1656 48.9363 30.1966H26.842C26.3798 30.1966 25.9361 29.9932 25.6218 29.6511L23.9855 27.8022C23.7451 27.5249 23.3939 27.3678 23.0241 27.3678C22.6543 27.3678 22.303 27.5249 22.0719 27.8022L20.676 29.383C20.2138 29.9007 19.5574 30.1966 18.8641 30.1966H4.03599C4.40577 32.1749 5.03439 34.0885 5.91261 35.9004L16.3126 35.8819ZM32.6475 12.2161C33.0173 12.2161 33.3686 12.0682 33.6182 11.8001L35.5503 9.78482C35.7907 9.53522 36.1235 9.38731 36.4747 9.38731H36.5579C36.9277 9.38731 37.279 9.54446 37.5101 9.8218L39.1464 11.6707C39.4607 12.022 39.9044 12.2161 40.3759 12.2161H44.7485C37.1681 2.13042 22.8484 0.0873988 12.7627 7.66784C11.0433 8.96206 9.5087 10.4966 8.21448 12.2161H32.6475ZM23.8561 41.5302H17.8657C17.3942 41.5302 16.9505 41.3269 16.6454 40.9756L15.0184 39.1267C14.5377 38.5905 13.7242 38.5535 13.188 39.025C13.151 39.0527 13.1233 39.0897 13.0863 39.1267L11.6811 40.7352C11.2282 41.2529 10.5626 41.558 9.87848 41.558H9.78604C18.3834 50.7839 32.8324 51.2924 42.0584 42.6858C42.4467 42.3253 42.8257 41.9462 43.1862 41.558L23.8561 41.5302Z" fill="white"/>
</svg>
