<svg width="20" height="20" viewBox="0 0 20 20" fill="none" xmlns="http://www.w3.org/2000/svg">
<g clip-path="url(#clip0_406_16391)">
<path d="M14.2641 6.19147C14.1473 6.19124 14.0319 6.16631 13.9254 6.11833C13.8189 6.07034 13.7238 6.00038 13.6462 5.91303L12.8247 4.98452C12.764 4.91645 12.6895 4.86199 12.6062 4.8247C12.523 4.78741 12.4327 4.76813 12.3415 4.76813C12.2503 4.76813 12.16 4.78741 12.0768 4.8247C11.9935 4.86199 11.919 4.91645 11.8583 4.98452L11.1507 5.78187C10.9205 6.0419 10.5869 6.19262 10.2394 6.19262H-0.857864C-1.1783 7.10986 -1.38127 8.06399 -1.46191 9.03224H9.01635C9.20044 9.03224 9.37648 8.95745 9.50304 8.82513L10.4799 7.80688C10.5401 7.74393 10.6124 7.69383 10.6925 7.65962C10.7726 7.62541 10.8588 7.60779 10.9459 7.60783H10.9861C11.0776 7.60789 11.168 7.62741 11.2513 7.6651C11.3346 7.70279 11.4089 7.75779 11.4694 7.82644L12.292 8.7538C12.3694 8.841 12.4644 8.91087 12.5707 8.95885C12.6769 9.00683 12.7921 9.03184 12.9087 9.03224H21.4621C21.3814 8.06399 21.1785 7.10986 20.858 6.19262L14.2641 6.19147ZM4.88004 15.0026C5.06413 15.0026 5.24017 14.9278 5.36673 14.7955L6.34357 13.7772C6.40362 13.7144 6.47576 13.6644 6.55564 13.6302C6.63552 13.596 6.7215 13.5783 6.8084 13.5781H6.84982C6.94127 13.5782 7.03166 13.5977 7.11498 13.6354C7.1983 13.6731 7.27264 13.7281 7.33306 13.7968L8.15457 14.7241C8.23211 14.8115 8.32724 14.8814 8.43372 14.9294C8.5402 14.9774 8.65563 15.0023 8.77242 15.0026H20.3633C20.8015 14.0923 21.118 13.1282 21.3045 12.1353H10.1796C10.0628 12.1351 9.94735 12.1102 9.84087 12.0622C9.73439 12.0142 9.63926 11.9442 9.56172 11.8569L8.74021 10.9284C8.67944 10.8603 8.60499 10.8058 8.52171 10.7686C8.43843 10.7313 8.34821 10.712 8.25697 10.712C8.16572 10.712 8.07551 10.7313 7.99223 10.7686C7.90895 10.8058 7.83449 10.8603 7.77373 10.9284L7.06728 11.7257C6.95302 11.8547 6.81273 11.9579 6.65566 12.0287C6.4986 12.0995 6.32831 12.1363 6.15602 12.1365H-1.30314C-1.11665 13.1294 -0.80021 14.0934 -0.361967 15.0037L4.88004 15.0026ZM13.102 3.08953C13.1931 3.0887 13.283 3.06987 13.3667 3.03413C13.4505 2.99839 13.5263 2.94644 13.5899 2.88128L14.5656 1.86302C14.6257 1.80007 14.6981 1.74998 14.7782 1.71577C14.8583 1.68155 14.9444 1.66393 15.0315 1.66397H15.0718C15.1633 1.66403 15.2536 1.68355 15.337 1.72125C15.4203 1.75894 15.4946 1.81394 15.555 1.88258L16.3777 2.81109C16.4552 2.89844 16.5504 2.9684 16.6569 3.01638C16.7633 3.06437 16.8788 3.0893 16.9956 3.08953H19.1989C18.1284 1.66144 16.7397 0.502556 15.1432 -0.295139C13.5466 -1.09283 11.786 -1.50737 10.0012 -1.50586C8.21646 -1.50737 6.45591 -1.09283 4.85932 -0.295139C3.26273 0.502556 1.87407 1.66144 0.803562 3.08953H13.102ZM5.66128 17.8468C5.54448 17.8465 5.42906 17.8216 5.32257 17.7736C5.21609 17.7256 5.12096 17.6557 5.04342 17.5683L4.22076 16.6398C4.16 16.5717 4.08554 16.5173 4.00226 16.48C3.91898 16.4427 3.82877 16.4234 3.73752 16.4234C3.64628 16.4234 3.55606 16.4427 3.47278 16.48C3.38951 16.5173 3.31505 16.5717 3.25428 16.6398L2.54783 17.4372C2.31772 17.6972 1.9852 17.8479 1.63773 17.8479H1.5894C2.66433 19.0033 3.9661 19.9245 5.41329 20.5539C6.86048 21.1833 8.42197 21.5072 10.0001 21.5056C11.5783 21.5071 13.1398 21.1829 14.587 20.5534C16.0342 19.9238 17.3359 19.0024 18.4108 17.8468H5.66128Z" fill="#81C714"/>
</g>
<defs>
<clipPath id="clip0_406_16391">
<path d="M0 10C0 4.47715 4.47715 0 10 0C15.5228 0 20 4.47715 20 10C20 15.5228 15.5228 20 10 20C4.47715 20 0 15.5228 0 10Z" fill="white"/>
</clipPath>
</defs>
</svg>
