<svg width="19" height="18" viewBox="0 0 19 18" fill="none" xmlns="http://www.w3.org/2000/svg">
<g clip-path="url(#clip0_1574_10121)">
<path d="M16.9556 2.77349C15.6518 2.17718 14.2671 1.74257 12.8218 1.5C12.6399 1.81332 12.4377 2.23781 12.2962 2.57135C10.759 2.34899 9.23279 2.34899 7.71672 2.57135C7.57521 2.23781 7.36295 1.81332 7.19112 1.5C5.73573 1.74257 4.35105 2.17718 3.05634 2.77349C0.438605 6.63439 -0.268894 10.4043 0.0848541 14.1237C1.82327 15.3871 3.50107 16.1553 5.14953 16.6607C5.55382 16.1148 5.91768 15.5286 6.231 14.9121C5.63468 14.6897 5.06868 14.4168 4.5229 14.0934C4.6644 13.9924 4.8059 13.8812 4.93729 13.77C8.2322 15.276 11.801 15.276 15.0555 13.77C15.197 13.8812 15.3284 13.9924 15.4699 14.0934C14.9241 14.4168 14.3581 14.6897 13.7618 14.9121C14.0751 15.5286 14.439 16.1148 14.8432 16.6607C16.4907 16.1553 18.1786 15.3871 19.9079 14.1237C20.3425 9.81815 19.2196 6.07854 16.9556 2.77349ZM6.68581 11.8294C5.6953 11.8294 4.88674 10.9299 4.88674 9.82826C4.88674 8.7266 5.67509 7.82702 6.68581 7.82702C7.68639 7.82702 8.50504 8.7266 8.48483 9.82826C8.48483 10.9299 7.68639 11.8294 6.68581 11.8294ZM13.3272 11.8294C12.3367 11.8294 11.5271 10.9299 11.5271 9.82826C11.5271 8.7266 12.3164 7.82702 13.3272 7.82702C14.3278 7.82702 15.1464 8.7266 15.1262 9.82826C15.1262 10.9299 14.3379 11.8294 13.3272 11.8294Z" fill="#131313"/>
</g>
<defs>
<clipPath id="clip0_1574_10121">
<rect width="18" height="18" fill="white" transform="translate(0.75)"/>
</clipPath>
</defs>
</svg>
