<svg width="36" height="36" viewBox="0 0 36 36" fill="none" xmlns="http://www.w3.org/2000/svg">
<rect width="36" height="36" rx="18" fill="#00271C"/>
<path d="M26.6465 12.726H23.8561C23.5297 12.726 23.2225 12.5852 23.0049 12.342L21.8721 11.062C21.5457 10.6972 20.9825 10.6652 20.6113 10.9916C20.5857 11.0108 20.5601 11.0364 20.5409 11.062L19.5745 12.1564C19.2609 12.5148 18.8001 12.726 18.3265 12.726H3.06247C2.62087 13.9868 2.34567 15.2988 2.23047 16.63H16.6369C16.8865 16.63 17.1297 16.5276 17.3025 16.342L18.6465 14.9404C18.8129 14.7676 19.0433 14.6716 19.2865 14.6716H19.3377C19.5937 14.6716 19.8369 14.7804 20.0033 14.966L21.1361 16.246C21.3473 16.4892 21.6609 16.63 21.9873 16.63H33.7441C33.6353 15.2988 33.3601 13.9868 32.9121 12.726H26.6593H26.6465ZM10.9473 24.8412C11.1969 24.8412 11.4401 24.7388 11.6129 24.5532L12.9505 23.1516C13.1169 22.9788 13.3473 22.8828 13.5905 22.8828H13.6481C13.9041 22.8828 14.1473 22.9916 14.3137 23.1772L15.4401 24.4572C15.6577 24.7004 15.9649 24.8412 16.2913 24.8412H32.2273C32.8353 23.5932 33.2705 22.2684 33.5329 20.9052H18.2369C17.9169 20.9052 17.6097 20.7644 17.3921 20.5276L16.2593 19.2476C16.0929 19.0556 15.8497 18.9468 15.5937 18.9468C15.3377 18.9468 15.0945 19.0556 14.9345 19.2476L13.9681 20.342C13.6481 20.7004 13.1937 20.9052 12.7137 20.9052H2.44807C2.70407 22.2748 3.13927 23.5996 3.74727 24.854L10.9473 24.8412ZM22.2561 8.45723C22.5121 8.45723 22.7553 8.35483 22.9281 8.16923L24.2657 6.77403C24.4321 6.60123 24.6625 6.49883 24.9057 6.49883H24.9633C25.2193 6.49883 25.4625 6.60763 25.6225 6.79963L26.7553 8.07963C26.9729 8.32283 27.2801 8.45723 27.6065 8.45723H30.6337C25.3857 1.47483 15.4721 0.0604317 8.48967 5.30843C7.29927 6.20443 6.23687 7.26683 5.34087 8.45723H22.2561ZM16.1697 28.7516H12.0225C11.6961 28.7516 11.3889 28.6108 11.1777 28.3676L10.0513 27.0876C9.71847 26.7164 9.15527 26.6908 8.78407 27.0172C8.75847 27.0364 8.73927 27.062 8.71367 27.0876L7.74087 28.2012C7.42727 28.5596 6.96647 28.7708 6.49287 28.7708H6.42887C12.3809 35.158 22.3841 35.51 28.7713 29.5516C29.0401 29.302 29.3025 29.0396 29.5521 28.7708L16.1697 28.7516Z" fill="#E4FE54"/>
</svg>
