<svg width="222" height="148" viewBox="0 0 222 148" fill="none" xmlns="http://www.w3.org/2000/svg">
<path d="M220 103.009C220 44.094 167.5 1.6 108.974 1.6C51.4297 1.6 1.6 45.1991 1.6 103.009C1.6 114.484 5.5962 122.99 12.3697 129.209C19.0922 135.381 28.4471 139.207 39.0338 141.597C57.4818 145.76 80.1676 145.654 100.33 145.559C103.272 145.545 106.161 145.532 108.974 145.532C112.723 145.532 116.604 145.564 120.57 145.596C140.668 145.76 162.948 145.943 181.22 142.101C192.177 139.798 201.867 136.017 208.834 129.784C215.855 123.501 220 114.821 220 103.009Z" fill="#F3FFB4" stroke="#00271C" stroke-width="2.8"/>
<path fill-rule="evenodd" clip-rule="evenodd" d="M108.951 19.0515C163.625 19.0515 212.424 54.5413 212.424 103.5C212.424 142.142 152.104 138.224 108.951 138.224C67.0554 138.224 8.9248 141.015 8.9248 103.5C8.9248 55.4253 55.2639 19.0515 108.951 19.0515Z" fill="#BAFE54" stroke="white" stroke-width="0.616"/>
<path fill-rule="evenodd" clip-rule="evenodd" d="M109.658 54.6157C142.037 54.6157 170.938 78.1286 170.938 110.565C170.938 136.166 135.214 133.571 109.658 133.571C84.8458 133.571 50.4189 135.42 50.4189 110.565C50.4189 78.7143 77.8625 54.6157 109.658 54.6157Z" fill="#BAFE54" stroke="white" stroke-width="0.616"/>
<path fill-rule="evenodd" clip-rule="evenodd" d="M109.658 54.6157C142.037 54.6157 170.938 78.1286 170.938 110.565C170.938 136.166 135.214 133.571 109.658 133.571C84.8458 133.571 50.4189 135.42 50.4189 110.565C50.4189 78.7143 77.8625 54.6157 109.658 54.6157Z" fill="#F3F5F5" stroke="white" stroke-width="1.848"/>
<path d="M110.678 133.335C98.1561 133.335 86.8335 131.459 78.6525 128.436C74.5608 126.924 71.271 125.13 69.0099 123.155C66.7481 121.178 65.5442 119.047 65.5442 116.85C65.5442 114.653 66.7481 112.521 69.0099 110.545C71.271 108.569 74.5608 106.776 78.6525 105.264C86.8335 102.24 98.1561 100.364 110.678 100.364C123.199 100.364 134.522 102.24 142.703 105.264C146.795 106.776 150.084 108.569 152.345 110.545C154.607 112.521 155.811 114.653 155.811 116.85C155.811 119.047 154.607 121.178 152.345 123.155C150.084 125.13 146.795 126.924 142.703 128.436C134.522 131.459 123.199 133.335 110.678 133.335Z" fill="#EAEAEA" stroke="white" stroke-width="0.616"/>
<path d="M91.4302 110.553C91.4302 111.337 91.3899 111.936 91.3163 112.386C91.242 112.84 91.1376 113.118 91.0274 113.28C90.927 113.428 90.8254 113.477 90.7142 113.489C90.582 113.503 90.4018 113.467 90.1558 113.366C89.9134 113.266 89.6413 113.117 89.3318 112.941C89.2714 112.907 89.2097 112.871 89.1468 112.835C88.8928 112.689 88.6193 112.533 88.3355 112.385C87.6284 112.018 86.8112 111.684 85.9345 111.684C85.0578 111.684 84.2407 112.018 83.5335 112.385C83.2497 112.533 82.9762 112.689 82.7223 112.835C82.6593 112.871 82.5976 112.907 82.5372 112.941C82.2278 113.117 81.9556 113.266 81.7133 113.366C81.4673 113.467 81.2871 113.503 81.1549 113.489C81.0437 113.477 80.9421 113.428 80.8417 113.28C80.7315 113.118 80.627 112.84 80.5527 112.386C80.4792 111.936 80.4389 111.337 80.4389 110.553C80.4389 107.419 81.0813 104.598 82.1056 102.571C83.1387 100.527 84.5097 99.3768 85.9345 99.3768C87.3594 99.3768 88.7303 100.527 89.7634 102.571C90.7877 104.598 91.4302 107.419 91.4302 110.553Z" fill="#333C47" stroke="white" stroke-width="0.616"/>
<path d="M140.993 110.553C140.993 111.337 140.952 111.936 140.879 112.386C140.805 112.84 140.7 113.118 140.59 113.28C140.489 113.428 140.388 113.477 140.277 113.489C140.144 113.503 139.964 113.467 139.718 113.366C139.476 113.266 139.204 113.117 138.894 112.941C138.834 112.907 138.772 112.871 138.709 112.835C138.455 112.689 138.182 112.533 137.898 112.385C137.191 112.018 136.374 111.684 135.497 111.684C134.62 111.684 133.803 112.018 133.096 112.385C132.812 112.533 132.539 112.689 132.285 112.835C132.222 112.871 132.16 112.907 132.1 112.941C131.79 113.117 131.518 113.266 131.276 113.366C131.03 113.467 130.85 113.503 130.717 113.489C130.606 113.477 130.505 113.428 130.404 113.28C130.294 113.118 130.19 112.84 130.115 112.386C130.042 111.936 130.001 111.337 130.001 110.553C130.001 107.419 130.644 104.598 131.668 102.571C132.701 100.527 134.072 99.3768 135.497 99.3768C136.922 99.3768 138.293 100.527 139.326 102.571C140.35 104.598 140.993 107.419 140.993 110.553Z" fill="#333C47" stroke="white" stroke-width="0.616"/>
<path d="M86.1129 105.535C85.8955 106.382 85.4982 107.083 85.0474 107.533C84.591 107.989 84.1263 108.149 83.7457 108.051C83.365 107.954 83.0348 107.59 82.8542 106.97C82.6758 106.359 82.6647 105.554 82.8821 104.706C83.0995 103.858 83.4969 103.158 83.9477 102.707C84.404 102.252 84.8687 102.091 85.2493 102.189C85.63 102.287 85.9602 102.651 86.1408 103.27C86.3193 103.882 86.3304 104.687 86.1129 105.535Z" fill="white" stroke="white" stroke-width="0.616"/>
<path d="M135.265 105.428C135.482 106.276 135.88 106.977 136.331 107.427C136.787 107.883 137.252 108.043 137.632 107.945C138.013 107.848 138.343 107.483 138.524 106.864C138.702 106.253 138.713 105.447 138.496 104.6C138.278 103.752 137.881 103.052 137.43 102.601C136.974 102.146 136.509 101.985 136.129 102.083C135.748 102.181 135.418 102.545 135.237 103.164C135.059 103.775 135.048 104.581 135.265 105.428Z" fill="white" stroke="white" stroke-width="0.616"/>
<path d="M78.1806 43.0054C73.289 44.6364 68.6296 45.3778 65.0565 45.2664C63.2686 45.2107 61.77 44.942 60.6542 44.4771C59.5375 44.0119 58.8407 43.3673 58.5773 42.5772C58.3138 41.7871 58.4843 40.8532 59.0983 39.8109C59.7119 38.7695 60.7494 37.6551 62.146 36.5376C64.9373 34.3042 69.1092 32.1009 74.0008 30.4699C78.8924 28.8388 83.5518 28.0975 87.1249 28.2088C88.9127 28.2645 90.4114 28.5333 91.5272 28.9981C92.6438 29.4633 93.3407 30.108 93.6041 30.8981C93.8675 31.6882 93.6971 32.6221 93.0831 33.6643C92.4695 34.7058 91.432 35.8201 90.0354 36.9377C87.2441 39.1711 83.0722 41.3744 78.1806 43.0054Z" fill="#F3FFB4" stroke="white" stroke-width="0.616"/>
<path d="M95.0948 69.3054C91.7641 70.4159 88.5956 70.9192 86.1711 70.8437C84.9576 70.8058 83.9476 70.6235 83.201 70.3124C82.4534 70.001 82.0061 69.5775 81.8385 69.0749C81.671 68.5724 81.7746 67.9652 82.1857 67.2674C82.5962 66.5705 83.2946 65.8185 84.2427 65.06C86.1367 63.5445 88.9732 62.0455 92.3038 60.9349C95.6345 59.8244 98.803 59.3211 101.228 59.3967C102.441 59.4345 103.451 59.6169 104.198 59.9279C104.945 60.2394 105.393 60.6629 105.56 61.1654C105.728 61.668 105.624 62.2752 105.213 62.9729C104.802 63.6698 104.104 64.4218 103.156 65.1804C101.262 66.6958 98.4255 68.1948 95.0948 69.3054Z" fill="white" stroke="white" stroke-width="0.616"/>
</svg>
